<svg viewBox="0 0 32 29" fill="none"
    xmlns="http://www.w3.org/2000/svg">
    <path d="M9.25 13H4.9C4.05992 13 3.63988 13 3.31901 13.1635C3.03677 13.3073 2.8073 13.5368 2.66349 13.819C2.5 14.1399 2.5 14.5599 2.5 15.4V28M22.75 13H27.1C27.9401 13 28.3601 13 28.681 13.1635C28.9632 13.3073 29.1927 13.5368 29.3365 13.819C29.5 14.1399 29.5 14.5599 29.5 15.4V28M22.75 28V5.8C22.75 4.11984 22.75 3.27976 22.423 2.63803C22.1354 2.07354 21.6765 1.6146 21.112 1.32698C20.4702 1 19.6302 1 17.95 1H14.05C12.3698 1 11.5298 1 10.888 1.32698C10.3235 1.6146 9.8646 2.07354 9.57698 2.63803C9.25 3.27976 9.25 4.11984 9.25 5.8V28M31 28H1M14.5 7H17.5M14.5 13H17.5M14.5 19H17.5" stroke="#667085" stroke-width="2" stroke-linecap="round" stroke-linejoin="round"/>
</svg>
